<svg width="85" height="84" viewBox="0 0 85 84" fill="none" xmlns="http://www.w3.org/2000/svg">
<path d="M67.7907 9.95508H30.3886L16.8059 23.5484V74.611H67.7907V9.95508ZM29.9621 12.4451V23.1215H19.293L29.9621 12.4451ZM66.3334 73.1526H18.2632V24.5799H31.4193V11.4135H66.3334V73.1526Z" fill="#5B5B5B"/>
<path d="M60.7164 28.8535H23.8806V30.3119H60.7164V28.8535Z" fill="#5B5B5B"/>
<path d="M45.5713 52.3469H43.0279V47.2882H47.5939V45.8298H43.0279V43.7676H41.5706V45.8298H39.5897C38.9709 45.8298 38.4336 45.9309 37.9896 46.1292C37.5583 46.3246 37.2056 46.5949 36.9443 46.9352C36.7014 47.2512 36.5333 47.6022 36.4323 48.0047C36.3303 48.4053 36.2778 48.8642 36.2778 49.3669V50.2672C36.2778 50.7699 36.3303 51.2278 36.4313 51.6254C36.5333 52.0348 36.7014 52.3858 36.9433 52.6959C37.2046 53.0362 37.5563 53.3075 37.9906 53.5058C38.4326 53.7051 38.9709 53.8053 39.5897 53.8053H41.5706V59.0108H37.3368V60.4692H41.5706V62.5314H43.0279V60.4692H45.5713C47.1577 60.4692 48.1827 59.2587 48.1827 57.3861V55.4309C48.1827 53.5564 47.1577 52.3469 45.5713 52.3469ZM41.5706 52.3469H39.5897C39.1836 52.3469 38.8378 52.2876 38.591 52.1767C38.3782 52.0795 38.2121 51.955 38.0955 51.8034C37.978 51.6536 37.8964 51.4796 37.8429 51.2677C37.771 50.9847 37.7341 50.6473 37.7341 50.2672V49.3669C37.7341 48.9857 37.771 48.6493 37.8439 48.3635C37.8964 48.1564 37.9789 47.9804 38.0975 47.8268C38.2121 47.678 38.3773 47.5546 38.5871 47.4603C38.8368 47.3484 39.1836 47.2891 39.5897 47.2891H41.5706V52.3469ZM46.7254 57.3852C46.7254 58.127 46.5253 59.0098 45.5713 59.0098H43.0279V53.8043H45.5713C46.5243 53.8043 46.7254 54.6881 46.7254 55.429V57.3852Z" fill="#5B5B5B"/>
<path d="M42.2998 40.0527C35.0825 40.0527 29.2117 45.9282 29.2117 53.1502C29.2117 60.3722 35.0825 66.2477 42.2998 66.2477C49.5152 66.2477 55.386 60.3722 55.386 53.1502C55.386 45.9282 49.5152 40.0527 42.2998 40.0527ZM42.2998 64.7893C35.8859 64.7893 30.6689 59.5682 30.6689 53.1502C30.6689 46.7322 35.8859 41.5111 42.2998 41.5111C48.7128 41.5111 53.9288 46.7322 53.9288 53.1502C53.9288 59.5682 48.7128 64.7893 42.2998 64.7893Z" fill="#5B5B5B"/>
<path d="M25.1963 81.6529C25.1963 80.3841 24.1645 79.3516 22.8967 79.3516C21.6289 79.3516 20.5972 80.3841 20.5972 81.6529C20.5972 82.9217 21.6289 83.9542 22.8967 83.9542C24.1645 83.9542 25.1963 82.9217 25.1963 81.6529ZM21.3248 81.6529C21.3248 80.7856 22.0301 80.0808 22.8958 80.0808C23.7614 80.0808 24.4667 80.7866 24.4667 81.6529C24.4667 82.5192 23.7614 83.225 22.8958 83.225C22.0301 83.225 21.3248 82.5192 21.3248 81.6529Z" fill="#5B5B5B"/>
<path d="M1.65443 28.8085L3.74026 27.7108L5.82707 28.8075L5.42973 26.4819L7.11627 24.8348L4.78464 24.4955L3.74124 22.3809L2.6988 24.4965L0.364258 24.8358L2.05372 26.4828L1.65443 28.8085ZM1.93034 25.3443L3.18164 25.1625L3.74026 24.0279L4.30083 25.1625L5.55116 25.3443L4.64571 26.2281L4.85945 27.4755L3.74026 26.8863L2.62205 27.4755L2.83676 26.2281L1.93034 25.3443Z" fill="#5B5B5B"/>
<path d="M21.7525 4.89918L21.4679 6.55981L22.9572 5.77616L24.4485 6.55981L24.1638 4.89918L25.3694 3.72273L23.7023 3.47966L22.9562 1.96875L22.212 3.47966L20.5459 3.72273L21.7525 4.89918ZM22.6959 4.14664L22.9572 3.61675L23.2195 4.14664L23.8053 4.23122L23.3808 4.64444L23.4818 5.2278L22.9582 4.95265L22.4365 5.2278L22.5356 4.64541L22.1129 4.2322L22.6959 4.14664Z" fill="#5B5B5B"/>
<path d="M77.6658 61.7081L78.8714 62.8845L78.5877 64.5452L80.0771 63.7615L81.5664 64.5452L81.2827 62.8845L82.4883 61.7081L80.8222 61.465L80.0761 59.9551L79.33 61.465L77.6658 61.7081ZM80.078 61.6021L80.3403 62.132L80.9252 62.2166L80.5026 62.6298L80.6017 63.2132L80.079 62.938L79.5563 63.2132L79.6554 62.6298L79.2328 62.2166L79.8177 62.132L80.078 61.6021Z" fill="#5B5B5B"/>
<path d="M80.0774 8.96484L79.1127 11.937H75.9912L78.5162 13.7736L77.5524 16.7449L80.0783 14.9083L82.6033 16.7449L81.6395 13.7736L84.1645 11.937H81.043L80.0774 8.96484ZM80.7817 13.4956L81.216 14.8354L80.0764 14.007L78.9358 14.8363L79.3701 13.4956L78.2305 12.6662H79.6402L80.0754 11.3255L80.5097 12.6662H81.9193L80.7817 13.4956Z" fill="#5B5B5B"/>
<path d="M72.3488 0.613281C71.0801 0.613281 70.0493 1.64582 70.0493 2.91461C70.0493 4.18341 71.081 5.21594 72.3488 5.21594C73.6166 5.21594 74.6484 4.18341 74.6484 2.91461C74.6484 1.64582 73.6166 0.613281 72.3488 0.613281ZM72.3488 4.48675C71.4823 4.48675 70.7779 3.78089 70.7779 2.91461C70.7779 2.04833 71.4832 1.34247 72.3488 1.34247C73.2145 1.34247 73.9198 2.04833 73.9198 2.91461C73.9198 3.78089 73.2145 4.48675 72.3488 4.48675Z" fill="#5B5B5B"/>
<path d="M79.7131 43.2427C79.7131 44.2675 80.5457 45.1007 81.5697 45.1007C82.5936 45.1007 83.4262 44.2675 83.4262 43.2427C83.4262 42.218 82.5936 41.3848 81.5697 41.3848C80.5457 41.3848 79.7131 42.219 79.7131 43.2427ZM81.5697 42.114C82.1924 42.114 82.6976 42.6205 82.6976 43.2427C82.6976 43.865 82.1914 44.3715 81.5697 44.3715C80.9479 44.3715 80.4418 43.865 80.4418 43.2427C80.4418 42.6205 80.9469 42.114 81.5697 42.114Z" fill="#5B5B5B"/>
<path d="M10.004 9.87695C8.67307 9.87695 7.58984 10.961 7.58984 12.294C7.58984 13.627 8.67307 14.7111 10.004 14.7111C11.335 14.7111 12.4182 13.627 12.4182 12.294C12.4182 10.961 11.335 9.87695 10.004 9.87695ZM10.004 13.9819C9.0743 13.9819 8.31847 13.2245 8.31847 12.294C8.31847 11.3635 9.0743 10.6062 10.004 10.6062C10.9338 10.6062 11.6896 11.3635 11.6896 12.294C11.6896 13.2245 10.9338 13.9819 10.004 13.9819Z" fill="#5B5B5B"/>
<path d="M17.7657 82.0086L17.9077 81.294C17.5946 81.2308 17.2835 81.1608 16.9772 81.084L16.7983 81.7918C17.1172 81.8715 17.4391 81.9435 17.7657 82.0086Z" fill="#5B5B5B"/>
<path d="M14.9384 81.2252L15.1832 80.5388C14.5994 80.3298 14.0174 80.0877 13.452 79.8203L13.1411 80.4795C13.7269 80.7566 14.3322 81.0084 14.9384 81.2252Z" fill="#5B5B5B"/>
<path d="M1.8064 62.5581C1.8064 62.88 1.81417 63.1989 1.82876 63.5158L2.55796 63.4808C2.54338 63.1746 2.5356 62.8663 2.5356 62.5581C2.5356 62.2421 2.54338 61.9242 2.55893 61.6063L1.82973 61.5703C1.81417 61.8999 1.8064 62.2295 1.8064 62.5581Z" fill="#5B5B5B"/>
<path d="M4.36774 70.7043C4.10251 70.1423 3.86157 69.5599 3.65075 68.9727L2.96582 69.2186C3.18441 69.8273 3.43313 70.433 3.71001 71.0154L4.36774 70.7043Z" fill="#5B5B5B"/>
<path d="M3.1058 67.1813C2.95509 66.5814 2.83259 65.9641 2.74022 65.3438L2.0188 65.4507C2.11505 66.0943 2.24242 66.736 2.39993 67.3583L3.1058 67.1813Z" fill="#5B5B5B"/>
<path d="M8.3078 77.2369L8.79938 76.6973C8.33889 76.2782 7.89394 75.831 7.47716 75.3691L6.93604 75.8582C7.36835 76.3376 7.82982 76.8013 8.3078 77.2369Z" fill="#5B5B5B"/>
<path d="M4.625 72.7317C4.95435 73.282 5.31771 73.8264 5.70341 74.3505L6.29022 73.9169C5.91715 73.4123 5.56739 72.8883 5.25164 72.3574L4.625 72.7317Z" fill="#5B5B5B"/>
<path d="M11.7997 78.9349C11.2664 78.614 10.7427 78.263 10.2424 77.8906L9.80811 78.4759C10.3259 78.8619 10.87 79.2266 11.4238 79.5601L11.7997 78.9349Z" fill="#5B5B5B"/>
<path d="M2.91113 58.7865L2.19554 58.6445C2.13137 58.9693 2.074 59.295 2.02539 59.6197L2.74681 59.7267C2.79348 59.4136 2.8489 59.1005 2.91113 58.7865Z" fill="#5B5B5B"/>
<path d="M82.7736 69.5195L82.0444 69.5039C82.0376 69.8218 82.0211 70.1378 81.9919 70.4499L82.7173 70.516C82.7484 70.1874 82.7668 69.8549 82.7736 69.5195Z" fill="#5B5B5B"/>
<path d="M73.7104 81.4219C73.0692 81.6708 72.4037 81.8691 71.7334 82.012L71.885 82.7247C72.5932 82.574 73.2966 82.364 73.9737 82.1005L73.7104 81.4219Z" fill="#5B5B5B"/>
<path d="M77.7256 79.9096L77.2641 79.3457C76.7317 79.7822 76.1615 80.1789 75.5688 80.525L75.937 81.1541C76.5627 80.7885 77.165 80.3695 77.7256 79.9096Z" fill="#5B5B5B"/>
<path d="M80.9712 74.4454L81.6396 74.7351C81.9301 74.0662 82.1671 73.372 82.3469 72.672L81.6406 72.4902C81.4696 73.1533 81.2452 73.8105 80.9712 74.4454Z" fill="#5B5B5B"/>
<path d="M78.7539 77.9156L79.2989 78.3998C79.7828 77.8553 80.2248 77.27 80.6144 76.6604L79.9994 76.2676C79.6322 76.8451 79.2125 77.3993 78.7539 77.9156Z" fill="#5B5B5B"/>
<path d="M69.0022 83.028C69.2423 83.028 69.4805 83.0221 69.7178 83.0095L69.6798 82.2812C69.3677 82.2968 69.0508 82.3017 68.7338 82.2958L68.7183 83.025C68.8145 83.027 68.9088 83.028 69.0022 83.028Z" fill="#5B5B5B"/>
<path d="M81.9348 27.0938H81.2056V29.0383H81.9348V27.0938Z" fill="#5B5B5B"/>
<path d="M81.9348 23.2051H81.2056V25.1496H81.9348V23.2051Z" fill="#5B5B5B"/>
<path d="M81.9348 30.9824H81.2056V32.927H81.9348V30.9824Z" fill="#5B5B5B"/>
<path d="M81.9348 34.8711H81.2056V36.8156H81.9348V34.8711Z" fill="#5B5B5B"/>
</svg>
