<svg width="70" height="57" viewBox="0 0 70 57" fill="none" xmlns="http://www.w3.org/2000/svg">
<path d="M55.3128 43.6055H44.3752C44.0301 43.6055 43.7502 43.3252 43.7502 42.9795C43.7502 42.6338 44.0301 42.3535 44.3752 42.3535H55.3128C55.6579 42.3535 55.9378 42.6338 55.9378 42.9795C55.9378 43.3252 55.6579 43.6055 55.3128 43.6055Z" fill="black"/>
<path d="M69.3751 49.8652H47.5001C47.155 49.8652 46.8751 49.5849 46.8751 49.2393C46.8751 48.8936 47.155 48.6133 47.5001 48.6133H69.3751C69.7203 48.6133 70.0001 48.8936 70.0001 49.2393C70.0001 49.5849 69.7203 49.8652 69.3751 49.8652Z" fill="black"/>
<path d="M61.5626 56.125H39.6876C39.3425 56.125 39.0626 55.8447 39.0626 55.499C39.0626 55.1533 39.3425 54.873 39.6876 54.873H61.5626C61.9078 54.873 62.1876 55.1533 62.1876 55.499C62.1876 55.8447 61.9078 56.125 61.5626 56.125Z" fill="black"/>
<path d="M31.875 1.35158H20.9375C20.5923 1.35158 20.3125 1.07129 20.3125 0.725593C20.3125 0.379893 20.5923 0.0996094 20.9375 0.0996094H31.875C32.2202 0.0996094 32.5 0.379893 32.5 0.725593C32.5 1.07129 32.2202 1.35158 31.875 1.35158Z" fill="black"/>
<circle cx="35.6587" cy="28.1116" r="23.1311" fill="#007BFF" fill-opacity="0.21"/>
<path d="M56.8933 30.286H44.2839C44.0606 30.286 43.8544 30.1668 43.7427 29.9732L37.4349 19.0335C37.3231 18.8399 37.3231 18.6012 37.4349 18.4076L40.5872 12.9379L43.7428 7.47088C43.8545 7.27745 44.0608 7.1582 44.2839 7.1582H56.8933C57.1166 7.1582 57.3228 7.27745 57.4346 7.47119L63.7392 18.4078C63.851 18.6014 63.851 18.84 63.7392 19.0336L57.4346 29.9732C57.323 30.1668 57.1167 30.286 56.8933 30.286ZM44.6447 29.0341H56.5325L62.4764 18.7205L56.5327 8.41H44.6446L38.6977 18.7205L44.6447 29.0341Z" fill="black"/>
<path d="M60.6953 36.8782H40.4829C40.2596 36.8782 40.0534 36.7589 39.9417 36.5654L34.8867 27.8018L29.8353 19.0342C29.7237 18.8406 29.7237 18.602 29.8353 18.4084L39.9417 0.877442C40.0534 0.683858 40.2596 0.564453 40.4829 0.564453H60.6953C61.0404 0.564453 61.3203 0.844735 61.3203 1.19043C61.3203 1.53613 61.0404 1.81641 60.6953 1.81641H40.8437L31.0982 18.7214L35.9693 27.1758L40.8435 35.6262H60.3345L65.2054 27.1757C65.3779 26.8763 65.7603 26.7733 66.0592 26.9466C66.3581 27.1194 66.4604 27.5023 66.2879 27.8017L61.2367 36.5652C61.1249 36.7588 60.9185 36.8782 60.6953 36.8782Z" fill="black"/>
<path d="M26.575 47.8171H13.9656C13.7423 47.8171 13.5359 47.6977 13.4244 47.5041L7.11968 36.5647C7.00812 36.371 7.00812 36.1323 7.11968 35.9386L13.4244 25.0024C13.5359 24.8087 13.7423 24.6895 13.9656 24.6895H26.5748C26.7981 24.6895 27.0045 24.8089 27.1161 25.0024L33.4208 35.9386C33.5325 36.1323 33.5325 36.371 33.4208 36.5647L27.1161 47.5041C27.0047 47.6977 26.7983 47.8171 26.575 47.8171ZM14.3266 46.5652H26.2141L32.158 36.2519L26.2141 25.9413H14.3266L8.38265 36.2519L14.3266 46.5652Z" fill="black"/>
<path d="M30.3767 54.4133H10.1642C9.81907 54.4133 9.53922 54.1331 9.53922 53.7874C9.53922 53.4417 9.81907 53.1614 10.1642 53.1614H30.0158L34.8867 44.7074L39.7613 36.253L34.8869 27.8026L30.0158 19.3478H10.5252L5.65063 27.8021C5.47797 28.1015 5.09578 28.2041 4.79687 28.0312C4.49797 27.8584 4.39563 27.4755 4.56828 27.1761L9.62329 18.4087C9.73485 18.2151 9.94126 18.0957 10.1645 18.0957H30.3767C30.6 18.0957 30.8064 18.2151 30.918 18.4088L35.9694 27.1761L41.0242 35.9393C41.136 36.1331 41.136 36.3719 41.0242 36.5655L35.9692 45.3328L30.918 54.0997C30.8064 54.2939 30.6 54.4133 30.3767 54.4133Z" fill="black"/>
<path d="M22.5 7.61131H0.625001C0.279844 7.61131 0 7.33104 0 6.98534C0 6.63965 0.279844 6.35938 0.625001 6.35938H22.5C22.8452 6.35938 23.125 6.63965 23.125 6.98534C23.125 7.33104 22.8452 7.61131 22.5 7.61131Z" fill="black"/>
<path d="M27.1874 13.8711H5.31238C4.96722 13.8711 4.68738 13.5908 4.68738 13.2451C4.68738 12.8994 4.96722 12.6191 5.31238 12.6191H27.1874C27.5326 12.6191 27.8124 12.8994 27.8124 13.2451C27.8124 13.5908 27.5326 13.8711 27.1874 13.8711Z" fill="black"/>
<path d="M47.5 16.375H44.375V19.5049H47.5V16.375Z" fill="black"/>
<path d="M52.1875 16.375H49.0625V19.5049H52.1875V16.375Z" fill="black"/>
<path d="M56.8752 16.375H53.7502V19.5049H56.8752V16.375Z" fill="black"/>
<path d="M16.25 33.5898H13.125V36.7197H16.25V33.5898Z" fill="black"/>
<path d="M20.9374 33.5898H17.8124V36.7197H20.9374V33.5898Z" fill="black"/>
<path d="M25.625 33.5898H22.5V36.7197H25.625V33.5898Z" fill="black"/>
</svg>
