<svg width="71" height="71" viewBox="0 0 71 71" fill="none" xmlns="http://www.w3.org/2000/svg">
<circle cx="34.3482" cy="35.3178" r="23.7416" fill="#007BFF" fill-opacity="0.21"/>
<path d="M56.6919 8.16406H25.3013L13.9017 19.5815V62.4704H56.6919V8.16406ZM24.9434 10.2555V19.223H15.9891L24.9434 10.2555ZM55.4689 61.2454H15.1248V20.4479H26.1664V9.38902H55.4689V61.2454Z" fill="black"/>
<path d="M50.7543 24.0371H19.8391V25.2621H50.7543V24.0371Z" fill="black"/>
<path d="M38.0435 43.7705H35.9089V39.5215H39.7411V38.2965H35.9089V36.5645H34.6859V38.2965H33.0233C32.504 38.2965 32.0531 38.3815 31.6804 38.5481C31.3184 38.7122 31.0224 38.9392 30.8031 39.2251C30.5993 39.4905 30.4582 39.7853 30.3734 40.1234C30.2878 40.4598 30.2438 40.8453 30.2438 41.2675V42.0237C30.2438 42.4459 30.2878 42.8305 30.3726 43.1645C30.4582 43.5083 30.5993 43.8031 30.8023 44.0636C31.0216 44.3494 31.3168 44.5773 31.6813 44.7439C32.0522 44.9113 32.504 44.9954 33.0233 44.9954H34.6859V49.3677H31.1325V50.5926H34.6859V52.3247H35.9089V50.5926H38.0435C39.375 50.5926 40.2352 49.5759 40.2352 48.0031V46.3608C40.2352 44.7863 39.375 43.7705 38.0435 43.7705ZM34.6859 43.7705H33.0233C32.6825 43.7705 32.3922 43.7206 32.1851 43.6275C32.0066 43.5459 31.8672 43.4413 31.7693 43.3139C31.6707 43.1882 31.6022 43.042 31.5573 42.864C31.497 42.6263 31.466 42.343 31.466 42.0237V41.2675C31.466 40.9473 31.497 40.6648 31.5581 40.4247C31.6022 40.2507 31.6715 40.1029 31.7709 39.9739C31.8672 39.849 32.0058 39.7453 32.1819 39.666C32.3914 39.5721 32.6825 39.5223 33.0233 39.5223H34.6859V43.7705ZM39.0122 48.0023C39.0122 48.6254 38.8442 49.3669 38.0435 49.3669H35.9089V44.9946H38.0435C38.8434 44.9946 39.0122 45.7369 39.0122 46.3592V48.0023Z" fill="black"/>
<path d="M35.298 33.4434C29.2407 33.4434 24.3135 38.3783 24.3135 44.4443C24.3135 50.5102 29.2407 55.4452 35.298 55.4452C41.3537 55.4452 46.2809 50.5102 46.2809 44.4443C46.2809 38.3783 41.3537 33.4434 35.298 33.4434ZM35.298 54.2202C29.915 54.2202 25.5365 49.8349 25.5365 44.4443C25.5365 39.0537 29.915 34.6683 35.298 34.6683C40.6802 34.6683 45.0579 39.0537 45.0579 44.4443C45.0579 49.8349 40.6802 54.2202 35.298 54.2202Z" fill="black"/>
<path d="M20.9432 68.3861C20.9432 67.3204 20.0773 66.4531 19.0133 66.4531C17.9493 66.4531 17.0834 67.3204 17.0834 68.3861C17.0834 69.4518 17.9493 70.3191 19.0133 70.3191C20.0773 70.3191 20.9432 69.4518 20.9432 68.3861ZM17.6941 68.3861C17.6941 67.6577 18.286 67.0656 19.0125 67.0656C19.739 67.0656 20.3309 67.6585 20.3309 68.3861C20.3309 69.1137 19.739 69.7066 19.0125 69.7066C18.286 69.7066 17.6941 69.1137 17.6941 68.3861Z" fill="black"/>
<path d="M1.18533 24.0004L2.93589 23.0784L4.68726 23.9995L4.35378 22.0461L5.76923 20.6628L3.81239 20.3777L2.9367 18.6016L2.06183 20.3786L0.102539 20.6636L1.52044 22.047L1.18533 24.0004ZM1.41689 21.0907L2.46706 20.938L2.93589 19.9849L3.40634 20.938L4.4557 21.0907L3.69579 21.833L3.87517 22.8807L2.93589 22.3859L1.99742 22.8807L2.17761 21.833L1.41689 21.0907Z" fill="black"/>
<path d="M18.0532 3.91838L17.8143 5.31319L19.0642 4.65498L20.3158 5.31319L20.0769 3.91838L21.0888 2.93025L19.6896 2.72609L19.0634 1.45703L18.4389 2.72609L17.0405 2.93025L18.0532 3.91838ZM18.8449 3.2863L19.0642 2.84123L19.2844 3.2863L19.7761 3.35735L19.4197 3.70442L19.5045 4.1944L19.0651 3.96329L18.6272 4.1944L18.7104 3.70523L18.3557 3.35816L18.8449 3.2863Z" fill="black"/>
<path d="M64.9794 51.6326L65.9913 52.6207L65.7532 54.0155L67.0032 53.3573L68.2531 54.0155L68.015 52.6207L69.0269 51.6326L67.6285 51.4284L67.0023 50.1602L66.3761 51.4284L64.9794 51.6326ZM67.004 51.5435L67.2241 51.9886L67.715 52.0597L67.3603 52.4067L67.4435 52.8967L67.0048 52.6656L66.5661 52.8967L66.6493 52.4067L66.2946 52.0597L66.7854 51.9886L67.004 51.5435Z" fill="black"/>
<path d="M67.0035 7.33203L66.1939 9.82849H63.5741L65.6932 11.3711L64.8844 13.8668L67.0043 12.3241L69.1235 13.8668L68.3146 11.3711L70.4338 9.82849H67.814L67.0035 7.33203ZM67.5947 11.1376L67.9591 12.2629L67.0027 11.5671L66.0455 12.2637L66.4099 11.1376L65.4535 10.441H66.6366L67.0019 9.31482L67.3664 10.441H68.5495L67.5947 11.1376Z" fill="black"/>
<path d="M60.5171 0.318359C59.4522 0.318359 58.5872 1.18563 58.5872 2.25134C58.5872 3.31705 59.4531 4.18432 60.5171 4.18432C61.5811 4.18432 62.447 3.31705 62.447 2.25134C62.447 1.18563 61.5811 0.318359 60.5171 0.318359ZM60.5171 3.57184C59.7898 3.57184 59.1987 2.97896 59.1987 2.25134C59.1987 1.52371 59.7906 0.930837 60.5171 0.930837C61.2436 0.930837 61.8355 1.52371 61.8355 2.25134C61.8355 2.97896 61.2436 3.57184 60.5171 3.57184Z" fill="black"/>
<path d="M66.6979 36.1231C66.6979 36.9838 67.3966 37.6837 68.256 37.6837C69.1154 37.6837 69.8141 36.9838 69.8141 36.1231C69.8141 35.2624 69.1154 34.5625 68.256 34.5625C67.3966 34.5625 66.6979 35.2632 66.6979 36.1231ZM68.256 35.175C68.7786 35.175 69.2026 35.6004 69.2026 36.1231C69.2026 36.6457 68.7778 37.0712 68.256 37.0712C67.7342 37.0712 67.3094 36.6457 67.3094 36.1231C67.3094 35.6004 67.7334 35.175 68.256 35.175Z" fill="black"/>
<path d="M8.19302 8.09961C7.07599 8.09961 6.16687 9.01016 6.16687 10.1298C6.16687 11.2494 7.07599 12.1599 8.19302 12.1599C9.31006 12.1599 10.2192 11.2494 10.2192 10.1298C10.2192 9.01016 9.31006 8.09961 8.19302 8.09961ZM8.19302 11.5475C7.41273 11.5475 6.77839 10.9113 6.77839 10.1298C6.77839 9.34825 7.41273 8.71209 8.19302 8.71209C8.97332 8.71209 9.60766 9.34825 9.60766 10.1298C9.60766 10.9113 8.97332 11.5475 8.19302 11.5475Z" fill="black"/>
<path d="M14.7077 68.6848L14.8269 68.0846C14.564 68.0315 14.3026 67.9727 14.0454 67.9082L13.8951 68.5027C14.163 68.5697 14.4333 68.6301 14.7077 68.6848Z" fill="black"/>
<path d="M12.3341 68.0277L12.5396 67.4511C12.0496 67.2756 11.5611 67.0722 11.0866 66.8477L10.8257 67.4013C11.3174 67.6341 11.8253 67.8456 12.3341 68.0277Z" fill="black"/>
<path d="M1.31287 52.3473C1.31287 52.6176 1.3194 52.8854 1.33165 53.1517L1.94413 53.1223C1.93188 52.865 1.92534 52.6062 1.92534 52.3473C1.92534 52.0819 1.93188 51.8148 1.94494 51.5478L1.33247 51.5176C1.3194 51.7944 1.31287 52.0713 1.31287 52.3473Z" fill="black"/>
<path d="M3.46405 59.1908C3.24111 58.7187 3.03858 58.2296 2.86137 57.7363L2.28564 57.9429C2.46939 58.4542 2.67845 58.9629 2.91119 59.4521L3.46405 59.1908Z" fill="black"/>
<path d="M2.40409 56.2309C2.27751 55.7271 2.17461 55.2085 2.09703 54.6875L1.49109 54.7773C1.57194 55.3179 1.67892 55.8569 1.81121 56.3796L2.40409 56.2309Z" fill="black"/>
<path d="M6.76952 64.6762L7.18207 64.223C6.79561 63.871 6.42219 63.4953 6.07242 63.1074L5.61829 63.5182C5.9811 63.9208 6.36838 64.3103 6.76952 64.6762Z" fill="black"/>
<path d="M3.67834 60.8925C3.95476 61.3547 4.2597 61.8121 4.58341 62.2522L5.07589 61.888C4.76279 61.4642 4.46925 61.024 4.20426 60.5781L3.67834 60.8925Z" fill="black"/>
<path d="M9.69998 66.1017C9.25233 65.8322 8.81284 65.5374 8.39292 65.2246L8.02844 65.7162C8.46304 66.0404 8.91966 66.3467 9.38442 66.6268L9.69998 66.1017Z" fill="black"/>
<path d="M2.2409 49.1798L1.63986 49.0605C1.58596 49.3333 1.53778 49.6069 1.49695 49.8796L2.10289 49.9695C2.14209 49.7065 2.18864 49.4435 2.2409 49.1798Z" fill="black"/>
<path d="M69.2669 58.1947L68.6545 58.1816C68.6487 58.4487 68.6349 58.7141 68.6104 58.9762L69.2196 59.0318C69.2457 58.7557 69.2612 58.4764 69.2669 58.1947Z" fill="black"/>
<path d="M61.66 68.1934C61.1218 68.4024 60.5632 68.569 60.0006 68.6891L60.1278 69.2877C60.7222 69.1611 61.3126 68.9847 61.8809 68.7634L61.66 68.1934Z" fill="black"/>
<path d="M65.03 66.9229L64.6427 66.4492C64.1958 66.8159 63.7172 67.1491 63.2198 67.4398L63.5289 67.9682C64.054 67.6611 64.5595 67.3091 65.03 66.9229Z" fill="black"/>
<path d="M67.7537 62.3317L68.3155 62.5751C68.5597 62.0132 68.7589 61.4301 68.91 60.8422L68.3163 60.6895C68.1726 61.2464 67.984 61.7984 67.7537 62.3317Z" fill="black"/>
<path d="M65.8928 65.2455L66.3502 65.6522C66.7562 65.1949 67.1272 64.7033 67.4542 64.1912L66.9381 63.8613C66.6299 64.3464 66.2777 64.8119 65.8928 65.2455Z" fill="black"/>
<path d="M57.7086 69.5412C57.9103 69.5412 58.1103 69.5363 58.3096 69.5257L58.2777 68.9141C58.0156 68.9271 57.7494 68.9312 57.4832 68.9263L57.4701 69.5388C57.5509 69.5404 57.6302 69.5412 57.7086 69.5412Z" fill="black"/>
<path d="M68.5628 22.5605H67.9503V24.1938H68.5628V22.5605Z" fill="black"/>
<path d="M68.5628 19.293H67.9503V20.9262H68.5628V19.293Z" fill="black"/>
<path d="M68.5628 25.8262H67.9503V27.4594H68.5628V25.8262Z" fill="black"/>
<path d="M68.5628 29.0938H67.9503V30.727H68.5628V29.0938Z" fill="black"/>
</svg>
