<svg width="183" height="63" viewBox="0 0 183 63" fill="none" xmlns="http://www.w3.org/2000/svg">
<path d="M14.0117 20.9493L32.1875 1L39.6716 21.0033" stroke="white" stroke-width="2" stroke-miterlimit="10" stroke-linecap="round" stroke-linejoin="round"/>
<path d="M39.4177 49.4585L28.7986 61.0641L21.3145 41.0427" stroke="white" stroke-width="2" stroke-miterlimit="10" stroke-linecap="round" stroke-linejoin="round"/>
<path d="M47.1377 41.0427L39.418 49.4585" stroke="white" stroke-width="2" stroke-miterlimit="10"/>
<path d="M39.6348 21.0034H52.6822L60.1664 41.0428H34.3253L26.8411 21.0034H1L8.48414 41.0428H21.3141" stroke="white" stroke-width="2" stroke-miterlimit="10" stroke-linecap="round" stroke-linejoin="round"/>
<path d="M39.6539 21.0034L21.2969 41.0428" stroke="white" stroke-width="2" stroke-miterlimit="10"/>
<path d="M67.2096 39.8918C65.8619 38.3802 65.1254 36.3386 65.0313 33.7672C65.0157 33.2061 65 32.3023 65 31.0399C65 29.762 65.0157 28.8269 65.0313 28.2503C65.141 25.6945 65.8619 23.6529 67.2096 22.1257C68.5574 20.614 70.5789 19.8503 73.29 19.8503C75.1392 19.8503 76.675 20.1932 77.8974 20.8633C79.1197 21.5335 80.0287 22.375 80.6242 23.4036C81.2197 24.4321 81.5488 25.4763 81.6114 26.5516V26.614C81.6114 26.7854 81.5488 26.9101 81.4234 27.0192C81.298 27.1282 81.1413 27.175 80.9533 27.175H80.3264C79.9503 27.175 79.7309 26.9568 79.6369 26.5205C79.2451 24.7594 78.5242 23.5283 77.4899 22.7958C76.4556 22.0789 75.0452 21.7049 73.29 21.7049C71.3312 21.7049 69.8267 22.2503 68.7454 23.3412C67.6641 24.4321 67.0843 26.1153 67.0059 28.3906C66.9902 28.9516 66.9746 29.8088 66.9746 30.962C66.9746 32.1152 66.9902 33.0035 67.0059 33.5958C67.0843 35.8711 67.6641 37.5542 68.7454 38.6451C69.8267 39.736 71.3468 40.2815 73.29 40.2815C75.0609 40.2815 76.4556 39.923 77.4899 39.1905C78.5242 38.4737 79.2451 37.2269 79.6369 35.4659C79.7152 35.0295 79.9503 34.8113 80.3264 34.8113H80.9533C81.1413 34.8113 81.298 34.8737 81.4391 34.9828C81.5801 35.0919 81.6271 35.2477 81.6114 35.4347C81.5488 36.51 81.2197 37.5542 80.6242 38.5828C80.0287 39.6113 79.1197 40.4529 77.8974 41.123C76.675 41.7931 75.1392 42.136 73.29 42.136C70.5789 42.1827 68.5574 41.4191 67.2096 39.8918Z" fill="white"/>
<path d="M84.0084 41.6842C83.883 41.5595 83.8203 41.4192 83.8203 41.2478L83.883 40.905L91.7656 20.8011C91.938 20.3803 92.2357 20.1777 92.6745 20.1777H93.7402C94.179 20.1777 94.4767 20.3803 94.6491 20.8011L102.532 40.905L102.594 41.2478C102.594 41.4192 102.532 41.5595 102.406 41.6842C102.281 41.8088 102.14 41.8712 101.968 41.8712H101.341C101.153 41.8712 100.996 41.8244 100.886 41.7153C100.777 41.6062 100.698 41.5127 100.651 41.4037L98.7236 36.4478H87.6911L85.7635 41.4037C85.7165 41.5127 85.6382 41.6062 85.5285 41.7153C85.4188 41.8244 85.2621 41.8712 85.074 41.8712H84.4472C84.2748 41.8712 84.1337 41.8088 84.0084 41.6842ZM88.4276 34.5777H97.9557L93.1917 22.3751L88.4276 34.5777Z" fill="white"/>
<path d="M106.434 41.6841C106.309 41.5595 106.246 41.388 106.246 41.1854V20.879C106.246 20.6764 106.309 20.505 106.434 20.3647C106.56 20.2244 106.732 20.1621 106.936 20.1621H114.191C116.432 20.1621 118.188 20.692 119.457 21.7361C120.726 22.7959 121.353 24.3543 121.353 26.4114C121.353 28.0478 120.946 29.3569 120.131 30.3699C119.316 31.3673 118.156 32.053 116.636 32.3958L121.651 40.8893C121.714 41.014 121.745 41.1231 121.745 41.2322C121.745 41.4036 121.682 41.5439 121.557 41.6685C121.431 41.7932 121.29 41.8556 121.118 41.8556H120.773C120.46 41.8556 120.225 41.7932 120.068 41.653C119.911 41.5127 119.755 41.3101 119.582 41.014L114.63 32.6764H108.205V41.1698C108.205 41.3724 108.142 41.5439 108.001 41.6685C107.86 41.7932 107.688 41.8556 107.484 41.8556H106.92C106.732 41.8711 106.56 41.8088 106.434 41.6841ZM114.035 30.8374C115.837 30.8374 117.185 30.4634 118.078 29.7309C118.955 28.9985 119.394 27.892 119.394 26.427C119.394 24.9621 118.955 23.8556 118.078 23.1231C117.2 22.3907 115.853 22.0167 114.035 22.0167H108.205V30.8218H114.035V30.8374Z" fill="white"/>
<path d="M130.866 41.6841C130.741 41.5595 130.678 41.388 130.678 41.1854V22.0322H124.504C124.3 22.0322 124.128 21.9699 124.002 21.8452C123.877 21.7205 123.814 21.5491 123.814 21.3465V20.879C123.814 20.6764 123.877 20.505 124.002 20.3647C124.128 20.2244 124.3 20.1621 124.504 20.1621H138.78C139.016 20.1621 139.188 20.2244 139.313 20.3491C139.439 20.4738 139.501 20.6452 139.501 20.879V21.3465C139.501 21.5491 139.439 21.7205 139.298 21.8452C139.157 21.9699 138.984 22.0322 138.78 22.0322H132.637V41.1854C132.637 41.388 132.575 41.5595 132.434 41.6841C132.293 41.8088 132.12 41.8711 131.916 41.8711H131.352C131.164 41.8711 130.992 41.8088 130.866 41.6841Z" fill="white"/>
<path d="M143.465 41.6841C143.34 41.5595 143.277 41.388 143.277 41.1854V20.879C143.277 20.6764 143.34 20.505 143.465 20.3647C143.591 20.2244 143.763 20.1621 143.967 20.1621H156.112C156.347 20.1621 156.519 20.2244 156.645 20.3491C156.77 20.4738 156.833 20.6452 156.833 20.879V21.3465C156.833 21.5491 156.77 21.7205 156.629 21.8452C156.488 21.9699 156.316 22.0322 156.112 22.0322H145.236V29.9335H155.422C155.658 29.9335 155.83 29.9958 155.955 30.1205C156.081 30.2452 156.143 30.4166 156.143 30.6504V31.1179C156.143 31.3205 156.081 31.4919 155.94 31.6166C155.799 31.7413 155.626 31.8036 155.422 31.8036H145.236V40.0166H156.363C156.598 40.0166 156.77 40.0789 156.896 40.2036C157.021 40.3283 157.084 40.4997 157.084 40.7335V41.201C157.084 41.4036 157.021 41.575 156.88 41.6997C156.739 41.8244 156.566 41.8867 156.363 41.8867H143.967C143.747 41.8711 143.575 41.8088 143.465 41.6841Z" fill="white"/>
<path d="M164.042 41.388C162.851 40.8582 161.927 40.1725 161.3 39.3309C160.673 38.4893 160.328 37.5699 160.281 36.6036C160.281 36.4322 160.344 36.2919 160.469 36.1673C160.595 36.0426 160.751 35.9803 160.939 35.9803H161.566C161.942 35.9803 162.162 36.1829 162.256 36.6036C162.397 37.601 162.977 38.4582 163.964 39.2062C164.967 39.9543 166.393 40.3283 168.258 40.3283C170.232 40.3283 171.706 39.9699 172.661 39.253C173.633 38.5361 174.103 37.5387 174.103 36.2608C174.103 35.4816 173.868 34.827 173.398 34.3283C172.928 33.8296 172.254 33.3777 171.361 32.9881C170.468 32.5984 169.12 32.1309 167.302 31.5543C165.703 31.04 164.45 30.5257 163.541 30.0426C162.632 29.5439 161.974 28.9361 161.535 28.2192C161.096 27.5024 160.877 26.5829 160.877 25.4608C160.877 24.4011 161.159 23.4504 161.739 22.6089C162.303 21.7673 163.133 21.0972 164.215 20.6141C165.296 20.1309 166.581 19.8816 168.086 19.8816C169.621 19.8816 170.938 20.1621 172.05 20.7076C173.147 21.253 173.978 21.9543 174.542 22.7803C175.106 23.6218 175.404 24.4634 175.451 25.305C175.451 25.4764 175.388 25.6166 175.279 25.7413C175.169 25.866 174.996 25.9283 174.793 25.9283H174.166C174.025 25.9283 173.868 25.8816 173.727 25.7881C173.586 25.6946 173.492 25.5387 173.476 25.305C173.351 24.2764 172.803 23.4192 171.815 22.7491C170.828 22.079 169.59 21.7361 168.086 21.7361C166.487 21.7361 165.218 22.0478 164.262 22.6712C163.321 23.2946 162.851 24.214 162.851 25.4608C162.851 26.2712 163.071 26.9257 163.494 27.4556C163.917 27.9855 164.559 28.4374 165.406 28.8114C166.252 29.2011 167.521 29.653 169.182 30.1829C170.891 30.7127 172.223 31.2426 173.163 31.7257C174.119 32.2244 174.84 32.8166 175.326 33.5179C175.811 34.2192 176.062 35.1231 176.062 36.2452C176.062 38.0997 175.373 39.5491 173.978 40.5932C172.583 41.6374 170.671 42.1517 168.242 42.1517C166.644 42.1828 165.233 41.9179 164.042 41.388Z" fill="white"/>
<path d="M180.762 41.6841C180.637 41.5595 180.574 41.388 180.574 41.1854V20.8478C180.574 20.6452 180.637 20.4738 180.762 20.3491C180.888 20.2244 181.06 20.1621 181.264 20.1621H181.859C182.063 20.1621 182.235 20.2244 182.361 20.3491C182.486 20.4738 182.549 20.6452 182.549 20.8478V41.1698C182.549 41.3724 182.486 41.5439 182.361 41.6685C182.235 41.7932 182.063 41.8556 181.859 41.8556H181.264C181.044 41.8711 180.888 41.8088 180.762 41.6841Z" fill="white"/>
</svg>
