<svg width="81" height="61" viewBox="0 0 81 61" fill="none" xmlns="http://www.w3.org/2000/svg">
<circle cx="39.4086" cy="30.895" r="23.6977" fill="#007BFF" fill-opacity="0.21"/>
<path d="M51.0139 41.8958C51.1227 41.9594 51.2455 41.9905 51.3669 41.9905C51.4883 41.9905 51.6112 41.9594 51.7199 41.8958L67.9563 32.5078C68.1751 32.3819 68.3092 32.1486 68.3092 31.8955V13.1195C68.3092 12.8664 68.1751 12.6331 67.9563 12.5072L51.7199 3.11783C51.5024 2.99197 51.2314 2.99197 51.0139 3.11783L34.7775 12.5072C34.5587 12.6331 34.4246 12.8664 34.4246 13.1195V31.8969C34.4246 32.15 34.5587 32.3834 34.7775 32.5092L51.0139 41.8958ZM51.3669 4.54603L66.1166 13.0757L58.7411 17.3405C58.4036 17.5357 58.2879 17.9684 58.4827 18.3063C58.614 18.534 58.8512 18.6598 59.0954 18.6598C59.2154 18.6598 59.3369 18.6301 59.4484 18.5651L66.8988 14.2564V31.4868L52.0742 40.0589V34.5228C52.0742 34.1326 51.758 33.8158 51.3683 33.8158C50.9786 33.8158 50.6624 34.1326 50.6624 34.5228V40.0589L35.8378 31.4868V14.4304L43.2868 18.7376C43.3984 18.8012 43.5198 18.8324 43.6398 18.8324C43.884 18.8324 44.1212 18.7065 44.2525 18.4788C44.4474 18.1409 44.3316 17.7082 43.9942 17.513L36.4704 13.1619L51.3669 4.54603Z" fill="black"/>
<path d="M55.2139 17.4187C55.6035 17.4187 55.9198 17.102 55.9198 16.7117C55.9198 16.3214 55.6035 16.0047 55.2139 16.0047H52.0739V13.6191C52.0739 13.2289 51.7576 12.9121 51.368 12.9121C50.9783 12.9121 50.662 13.2289 50.662 13.6191V16.0047H50.2399C48.3438 16.0047 46.7992 17.5389 46.7992 19.4239C46.7992 21.3088 48.3424 22.8431 50.2399 22.8431H50.662V26.8379H47.5051C47.1155 26.8379 46.7992 27.1546 46.7992 27.5449C46.7992 27.9352 47.1155 28.2519 47.5051 28.2519H50.662V31.4293C50.662 31.8196 50.9783 32.1364 51.368 32.1364C51.7576 32.1364 52.0739 31.8196 52.0739 31.4293V28.2519H52.5144C54.3922 28.2519 55.9198 26.7205 55.9198 24.8398C55.9198 23.0057 54.4656 21.5167 52.6528 21.4418C52.6288 21.4389 52.6076 21.4276 52.5836 21.4276H52.5144H52.0739V17.4173H55.2139V17.4187ZM52.5144 22.8431C53.6142 22.8431 54.5079 23.7396 54.5079 24.8412C54.5079 25.9427 53.6142 26.8393 52.5144 26.8393H52.0739V22.8445H52.5144V22.8431ZM50.662 21.429H50.2399C49.1217 21.429 48.2111 20.5297 48.2111 19.4239C48.2111 18.3181 49.1217 17.4187 50.2399 17.4187H50.662V21.429Z" fill="black"/>
<path d="M51.367 11.5879C52.5346 11.5879 53.4848 10.6362 53.4848 9.46681C53.4848 8.29737 52.5346 7.3457 51.367 7.3457C50.1993 7.3457 49.2491 8.29737 49.2491 9.46681C49.2491 10.6362 50.1993 11.5879 51.367 11.5879ZM51.367 8.75977C51.7566 8.75977 52.0729 9.07652 52.0729 9.46681C52.0729 9.85709 51.7566 10.1738 51.367 10.1738C50.9773 10.1738 50.661 9.85709 50.661 9.46681C50.661 9.07652 50.9787 8.75977 51.367 8.75977Z" fill="black"/>
<path d="M40.4265 27.4253C39.9366 27.1425 39.3676 27.0676 38.8184 27.2132C38.272 27.3603 37.8159 27.711 37.5322 28.2017C36.9491 29.2141 37.2964 30.5137 38.3073 31.0977C38.6334 31.2858 38.9963 31.3833 39.3633 31.3833C39.5469 31.3833 39.7318 31.3593 39.914 31.3098C40.4604 31.1627 40.9164 30.812 41.2002 30.3214C41.4826 29.8307 41.5574 29.2594 41.4105 28.7121C41.2665 28.1649 40.915 27.7081 40.4265 27.4253ZM39.9789 29.6143C39.7841 29.9523 39.352 30.0696 39.016 29.8731H39.0146C38.6786 29.6779 38.5628 29.2452 38.7562 28.9073C38.8494 28.7432 39.0019 28.6273 39.184 28.5778C39.2447 28.5622 39.3069 28.5538 39.3676 28.5538C39.489 28.5538 39.6104 28.5863 39.7205 28.6485C40.0566 28.8451 40.1723 29.2778 39.9789 29.6143Z" fill="black"/>
<path d="M62.82 31.3099C63.0021 31.3594 63.1871 31.3834 63.372 31.3834C63.7391 31.3834 64.1005 31.2872 64.4267 31.0978C64.9166 30.8149 65.2667 30.3568 65.4121 29.8095C65.559 29.2623 65.4842 28.691 65.2018 28.1989C64.918 27.7082 64.462 27.3575 63.9156 27.2119C63.3706 27.0648 62.7988 27.1412 62.3103 27.424C61.2994 28.008 60.9507 29.3075 61.5338 30.3214C61.8175 30.8121 62.275 31.1642 62.82 31.3099ZM63.0162 28.65C63.1263 28.5864 63.2478 28.5553 63.3678 28.5553C63.612 28.5553 63.8492 28.6811 63.9805 28.9074C64.1754 29.2453 64.0596 29.678 63.7222 29.8732H63.7207C63.5584 29.9679 63.3664 29.9905 63.1856 29.9439C63.0035 29.8944 62.851 29.7784 62.7578 29.6158C62.563 29.2778 62.6788 28.8451 63.0162 28.65Z" fill="black"/>
<path d="M39.3974 25.7285C39.7873 25.7285 40.1034 25.412 40.1034 25.0215C40.1034 24.631 39.7873 24.3145 39.3974 24.3145C39.0075 24.3145 38.6914 24.631 38.6914 25.0215C38.6914 25.412 39.0075 25.7285 39.3974 25.7285Z" fill="black"/>
<path d="M39.3974 22.9024C39.7873 22.9024 40.1034 22.5858 40.1034 22.1953C40.1034 21.8048 39.7873 21.4883 39.3974 21.4883C39.0075 21.4883 38.6914 21.8048 38.6914 22.1953C38.6914 22.5858 39.0075 22.9024 39.3974 22.9024Z" fill="black"/>
<path d="M39.3974 20.0742C39.7873 20.0742 40.1034 19.7577 40.1034 19.3672C40.1034 18.9767 39.7873 18.6602 39.3974 18.6602C39.0075 18.6602 38.6914 18.9767 38.6914 19.3672C38.6914 19.7577 39.0075 20.0742 39.3974 20.0742Z" fill="black"/>
<path d="M63.3983 25.7285C63.7881 25.7285 64.1042 25.412 64.1042 25.0215C64.1042 24.631 63.7881 24.3145 63.3983 24.3145C63.0084 24.3145 62.6924 24.631 62.6924 25.0215C62.6924 25.412 63.0084 25.7285 63.3983 25.7285Z" fill="black"/>
<path d="M63.3983 22.9024C63.7881 22.9024 64.1042 22.5858 64.1042 22.1953C64.1042 21.8048 63.7881 21.4883 63.3983 21.4883C63.0084 21.4883 62.6924 21.8048 62.6924 22.1953C62.6924 22.5858 63.0084 22.9024 63.3983 22.9024Z" fill="black"/>
<path d="M63.3983 20.0742C63.7881 20.0742 64.1042 19.7577 64.1042 19.3672C64.1042 18.9767 63.7881 18.6602 63.3983 18.6602C63.0084 18.6602 62.6924 18.9767 62.6924 19.3672C62.6924 19.7577 63.0084 20.0742 63.3983 20.0742Z" fill="black"/>
<path d="M42.9513 14.5093C43.2896 14.3142 43.406 13.8816 43.2114 13.5431C43.0167 13.2046 42.5847 13.0883 42.2464 13.2834C41.9081 13.4785 41.7917 13.9111 41.9864 14.2497C42.1811 14.5882 42.6131 14.7044 42.9513 14.5093Z" fill="black"/>
<path d="M45.391 13.099C45.7292 12.9039 45.8456 12.4713 45.6509 12.1329C45.4562 11.7944 45.0242 11.6782 44.686 11.8733C44.3478 12.0684 44.2314 12.501 44.4261 12.8394C44.6207 13.1779 45.0527 13.2942 45.391 13.099Z" fill="black"/>
<path d="M47.8373 11.683C48.1755 11.4879 48.2919 11.0553 48.0973 10.7168C47.9026 10.3783 47.4706 10.2621 47.1324 10.4572C46.7942 10.6524 46.6778 11.0849 46.8725 11.4234C47.0671 11.7619 47.4991 11.8781 47.8373 11.683Z" fill="black"/>
<path d="M54.9308 35.3394C55.2691 35.1443 55.3855 34.7117 55.1908 34.3732C54.9962 34.0346 54.5641 33.9184 54.2259 34.1135C53.8876 34.3086 53.7712 34.7412 53.9659 35.0798C54.1605 35.4183 54.5925 35.5345 54.9308 35.3394Z" fill="black"/>
<path d="M57.378 33.9293C57.7162 33.7341 57.8326 33.3015 57.638 32.963C57.4433 32.6245 57.0113 32.5082 56.673 32.7033C56.3348 32.8985 56.2184 33.3311 56.413 33.6696C56.6077 34.0081 57.0397 34.1244 57.378 33.9293Z" fill="black"/>
<path d="M59.8252 32.5171C60.1635 32.322 60.2799 31.8894 60.0852 31.5509C59.8906 31.2124 59.4585 31.0961 59.1203 31.2912C58.782 31.4864 58.6656 31.919 58.8603 32.2575C59.0549 32.596 59.4869 32.7123 59.8252 32.5171Z" fill="black"/>
<path d="M60.768 14.2539C60.9627 13.9154 60.8463 13.4828 60.5081 13.2877C60.1699 13.0926 59.7379 13.2088 59.5432 13.5473C59.3486 13.8858 59.465 14.3183 59.8032 14.5135C60.1414 14.7086 60.5734 14.5924 60.768 14.2539Z" fill="black"/>
<path d="M58.3239 12.8418C58.5185 12.5033 58.4021 12.0707 58.0639 11.8756C57.7257 11.6805 57.2937 11.7967 57.0991 12.1352C56.9044 12.4737 57.0208 12.9062 57.359 13.1013C57.6972 13.2965 58.1292 13.1802 58.3239 12.8418Z" fill="black"/>
<path d="M55.8756 11.4296C56.0703 11.0911 55.9539 10.6586 55.6157 10.4635C55.2775 10.2684 54.8455 10.3846 54.6508 10.7231C54.4561 11.0615 54.5725 11.4941 54.9108 11.6892C55.249 11.8843 55.681 11.7681 55.8756 11.4296Z" fill="black"/>
<path d="M48.7961 35.078C48.9907 34.7395 48.8743 34.3069 48.536 34.1118C48.1978 33.9166 47.7658 34.0329 47.5711 34.3714C47.3764 34.7099 47.4928 35.1425 47.8311 35.3377C48.1694 35.5328 48.6014 35.4165 48.7961 35.078Z" fill="black"/>
<path d="M46.3415 33.6718C46.5362 33.3334 46.4198 32.9008 46.0816 32.7057C45.7434 32.5105 45.3114 32.6268 45.1167 32.9652C44.9221 33.3037 45.0385 33.7363 45.3767 33.9314C45.7149 34.1265 46.1469 34.0103 46.3415 33.6718Z" fill="black"/>
<path d="M43.9018 32.2577C44.0964 31.9192 43.98 31.4866 43.6418 31.2915C43.3035 31.0963 42.8715 31.2126 42.6768 31.5511C42.4821 31.8896 42.5986 32.3222 42.9368 32.5174C43.2751 32.7125 43.7071 32.5962 43.9018 32.2577Z" fill="black"/>
<path d="M59.5926 44.0142L49.0946 48.9382C49.1885 48.6315 49.2538 48.3115 49.2538 47.9749C49.2538 46.1435 47.7657 44.6531 45.9372 44.6531H36.7658C35.7951 41.3712 32.808 39.1168 29.3543 39.1168H19.4046V37.456C19.4046 37.1504 19.157 36.9023 18.8518 36.9023H8.90213C8.597 36.9023 8.34937 37.1504 8.34937 37.456V56.2792C8.34937 56.5848 8.597 56.8329 8.90213 56.8329H18.8518C19.157 56.8329 19.4046 56.5848 19.4046 56.2792V54.4645L37.6391 60.6429C38.308 60.85 39.0045 60.9496 39.6943 60.9496C41.0994 60.9496 42.4758 60.5344 43.5371 59.7571L61.6777 49.8959L62.0381 49.649C63.3647 48.9847 63.9772 47.3249 63.42 45.8423C62.4825 43.6964 60.5445 43.692 59.5926 44.0142ZM18.2991 55.7256H9.45489V38.0096H18.2991V55.7256ZM61.4842 48.6924L42.949 58.8215C41.5825 59.8169 39.6733 60.1103 37.9796 59.5877L19.4046 53.2952V40.2241H29.3543C32.4399 40.2241 35.0909 42.3245 35.8029 45.3341C35.8615 45.5843 36.0837 45.7604 36.3401 45.7604H45.9372C47.1566 45.7604 48.1483 46.7536 48.1483 47.9749C48.1483 49.1962 47.1566 50.1894 45.9372 50.1894H35.4038C35.0986 50.1894 34.851 50.4374 34.851 50.743C34.851 51.0486 35.0986 51.2966 35.4038 51.2966H45.9372C46.4347 51.2966 46.9012 51.1792 47.3257 50.9821C47.3412 50.9766 47.3578 50.9777 47.3733 50.9711L60.0017 45.0428C60.0669 45.0196 61.6368 44.5213 62.3951 46.2586C62.739 47.1743 62.3576 48.2517 61.4842 48.6924Z" fill="black"/>
<path d="M2.14459 32.7989C3.3122 32.7989 4.26238 31.8472 4.26238 30.6778C4.26238 30.2027 4.10001 29.7671 3.83458 29.4136L7.27669 24.2438C7.44329 24.2862 7.61413 24.3145 7.79202 24.3145C8.20146 24.3145 8.57984 24.1929 8.90456 23.9907L12.8592 27.1596C12.7844 27.3774 12.7335 27.6078 12.7335 27.8497C12.7335 29.0191 13.6837 29.9708 14.8513 29.9708C16.0189 29.9708 16.9691 29.0191 16.9691 27.8497C16.9691 27.3222 16.7686 26.8457 16.4495 26.4738L20.1232 20.0341C20.246 20.0567 20.3703 20.0723 20.4987 20.0723C21.6663 20.0723 22.6165 19.1206 22.6165 17.9512C22.6165 16.7817 21.6663 15.8301 20.4987 15.8301C19.3311 15.8301 18.381 16.7817 18.381 17.9512C18.381 18.4786 18.5814 18.9566 18.9005 19.3271L15.2269 25.7667C15.104 25.7441 14.9798 25.7286 14.8513 25.7286C14.4419 25.7286 14.0635 25.8502 13.7388 26.0524L9.78415 22.8834C9.86039 22.6657 9.90981 22.4352 9.90981 22.192C9.90981 21.0225 8.95963 20.0709 7.79202 20.0709C6.62441 20.0709 5.67423 21.0225 5.67423 22.192C5.67423 22.6671 5.8366 23.1026 6.10203 23.4561L2.65992 28.626C2.49332 28.5836 2.32248 28.5553 2.14318 28.5553C0.975571 28.5553 0.0253906 29.5069 0.0253906 30.6764C0.0253906 31.8458 0.976982 32.7989 2.14459 32.7989ZM20.4987 17.2441C20.8884 17.2441 21.2047 17.5609 21.2047 17.9512C21.2047 18.3415 20.8884 18.6582 20.4987 18.6582C20.1091 18.6582 19.7928 18.3415 19.7928 17.9512C19.7928 17.5609 20.1105 17.2441 20.4987 17.2441ZM14.8513 27.1426C15.241 27.1426 15.5572 27.4594 15.5572 27.8497C15.5572 28.2399 15.241 28.5567 14.8513 28.5567C14.4616 28.5567 14.1454 28.2399 14.1454 27.8497C14.1454 27.4594 14.463 27.1426 14.8513 27.1426ZM7.79202 21.4863C8.18169 21.4863 8.49795 21.8031 8.49795 22.1934C8.49795 22.5837 8.18169 22.9004 7.79202 22.9004C7.40235 22.9004 7.08609 22.5837 7.08609 22.1934C7.08609 21.8031 7.40376 21.4863 7.79202 21.4863ZM2.14459 29.9708C2.53426 29.9708 2.85052 30.2875 2.85052 30.6778C2.85052 31.0681 2.53426 31.3848 2.14459 31.3848C1.75492 31.3848 1.43866 31.0681 1.43866 30.6778C1.43866 30.2875 1.75633 29.9708 2.14459 29.9708Z" fill="black"/>
<path d="M76.7269 16.4121C76.8653 16.5507 77.046 16.6186 77.2267 16.6186C77.4075 16.6186 77.5882 16.5493 77.7265 16.4121L78.2729 15.8649L78.8193 16.4121C78.9577 16.5507 79.1384 16.6186 79.3191 16.6186C79.4998 16.6186 79.6805 16.5493 79.8189 16.4121C80.0942 16.1364 80.0942 15.6881 79.8189 15.4124L79.2725 14.8651L79.8189 14.3179C80.0942 14.0421 80.0942 13.5939 79.8189 13.3181C79.5436 13.0424 79.096 13.0424 78.8207 13.3181L78.2701 13.8654L77.7237 13.3181C77.4484 13.0424 77.0008 13.0424 76.7255 13.3181C76.4502 13.5939 76.4502 14.0421 76.7255 14.3179L77.2719 14.8651L76.7255 15.4124C76.4502 15.6881 76.4502 16.135 76.7269 16.4121Z" fill="black"/>
<path d="M64.0077 6.22078H64.78V6.99427C64.78 7.38455 65.0962 7.70131 65.4859 7.70131C65.8756 7.70131 66.1918 7.38455 66.1918 6.99427V6.22078H66.9641C67.3538 6.22078 67.67 5.90402 67.67 5.51374C67.67 5.12346 67.3538 4.8067 66.9641 4.8067H66.1918V4.03321C66.1918 3.64292 65.8756 3.32617 65.4859 3.32617C65.0962 3.32617 64.78 3.64292 64.78 4.03321V4.8067H64.0077C63.618 4.8067 63.3018 5.12346 63.3018 5.51374C63.3018 5.90402 63.6166 6.22078 64.0077 6.22078Z" fill="black"/>
<path d="M39.3655 5.22747C39.5462 5.22747 39.7269 5.15818 39.8653 5.02101L42.6889 2.19288C42.9642 1.91714 42.9642 1.46888 42.6889 1.19314C42.4136 0.917392 41.9661 0.917392 41.6908 1.19314L38.8671 4.02127C38.5918 4.29701 38.5918 4.74527 38.8671 5.02101C39.0041 5.15959 39.1848 5.22747 39.3655 5.22747Z" fill="black"/>
<path d="M30.7624 9.46681H33.7188C34.1085 9.46681 34.4247 9.15006 34.4247 8.75977C34.4247 8.36949 34.1085 8.05273 33.7188 8.05273H30.7624C30.3728 8.05273 30.0565 8.36949 30.0565 8.75977C30.0565 9.15006 30.3714 9.46681 30.7624 9.46681Z" fill="black"/>
<path d="M42.5397 4.8265C42.8156 4.55018 42.8156 4.10217 42.5397 3.82584C42.2638 3.54951 41.8165 3.54951 41.5406 3.82584C41.2647 4.10217 41.2647 4.55018 41.5406 4.8265C41.8165 5.10283 42.2638 5.10283 42.5397 4.8265Z" fill="black"/>
<path d="M40.058 2.34018C40.3339 2.06385 40.3339 1.61584 40.058 1.33951C39.7821 1.06319 39.3348 1.06319 39.0589 1.33951C38.783 1.61584 38.783 2.06385 39.0589 2.34018C39.3348 2.6165 39.7821 2.6165 40.058 2.34018Z" fill="black"/>
</svg>
