<svg width="183" height="64" viewBox="0 0 183 64" fill="none" xmlns="http://www.w3.org/2000/svg">
<path d="M14.0112 21.8886L32.187 1.9393L39.6711 21.9426" stroke="black" stroke-width="2" stroke-miterlimit="10" stroke-linecap="round" stroke-linejoin="round"/>
<path d="M39.4175 50.3978L28.7983 62.0034L21.3142 41.982" stroke="black" stroke-width="2" stroke-miterlimit="10" stroke-linecap="round" stroke-linejoin="round"/>
<path d="M47.1372 41.982L39.4175 50.3979" stroke="black" stroke-width="2" stroke-miterlimit="10"/>
<path d="M39.6348 21.9427H52.6822L60.1664 41.982H34.3253L26.8411 21.9427H1L8.48414 41.982H21.3141" stroke="black" stroke-width="2" stroke-miterlimit="10" stroke-linecap="round" stroke-linejoin="round"/>
<path d="M39.6531 21.9427L21.2961 41.982" stroke="black" stroke-width="2" stroke-miterlimit="10"/>
<path d="M67.2096 40.8311C65.8619 39.3194 65.1254 37.2778 65.0313 34.7064C65.0157 34.1454 65 33.2415 65 31.9792C65 30.7012 65.0157 29.7662 65.0313 29.1896C65.141 26.6337 65.8619 24.5922 67.2096 23.0649C68.5574 21.5532 70.5789 20.7896 73.29 20.7896C75.1392 20.7896 76.675 21.1324 77.8974 21.8026C79.1197 22.4727 80.0287 23.3142 80.6242 24.3428C81.2197 25.3714 81.5488 26.4155 81.6114 27.4909V27.5532C81.6114 27.7246 81.5488 27.8493 81.4234 27.9584C81.298 28.0675 81.1413 28.1142 80.9533 28.1142H80.3264C79.9503 28.1142 79.7309 27.8961 79.6369 27.4597C79.2451 25.6987 78.5242 24.4675 77.4899 23.735C76.4556 23.0181 75.0452 22.6441 73.29 22.6441C71.3312 22.6441 69.8267 23.1896 68.7454 24.2805C67.6641 25.3714 67.0843 27.0545 67.0059 29.3298C66.9902 29.8909 66.9746 30.748 66.9746 31.9012C66.9746 33.0545 66.9902 33.9428 67.0059 34.535C67.0843 36.8103 67.6641 38.4934 68.7454 39.5843C69.8267 40.6752 71.3468 41.2207 73.29 41.2207C75.0609 41.2207 76.4556 40.8622 77.4899 40.1298C78.5242 39.4129 79.2451 38.1662 79.6369 36.4051C79.7152 35.9688 79.9503 35.7506 80.3264 35.7506H80.9533C81.1413 35.7506 81.298 35.8129 81.4391 35.922C81.5801 36.0311 81.6271 36.1869 81.6114 36.3739C81.5488 37.4493 81.2197 38.4934 80.6242 39.522C80.0287 40.5506 79.1197 41.3921 77.8974 42.0622C76.675 42.7324 75.1392 43.0752 73.29 43.0752C70.5789 43.122 68.5574 42.3583 67.2096 40.8311Z" fill="black"/>
<path d="M84.0091 42.6233C83.8837 42.4986 83.821 42.3584 83.821 42.187L83.8837 41.8441L91.7663 21.7403C91.9387 21.3195 92.2365 21.1169 92.6753 21.1169H93.7409C94.1797 21.1169 94.4774 21.3195 94.6498 21.7403L102.532 41.8441L102.595 42.187C102.595 42.3584 102.532 42.4986 102.407 42.6233C102.282 42.748 102.141 42.8103 101.968 42.8103H101.341C101.153 42.8103 100.997 42.7636 100.887 42.6545C100.777 42.5454 100.699 42.4519 100.652 42.3428L98.7243 37.387H87.6918L85.7643 42.3428C85.7173 42.4519 85.6389 42.5454 85.5292 42.6545C85.4195 42.7636 85.2628 42.8103 85.0747 42.8103H84.4479C84.2755 42.8103 84.1345 42.748 84.0091 42.6233ZM88.4284 35.5168H97.9564L93.1924 23.3143L88.4284 35.5168Z" fill="black"/>
<path d="M106.434 42.6233C106.309 42.4986 106.246 42.3272 106.246 42.1246V21.8181C106.246 21.6155 106.309 21.4441 106.434 21.3039C106.56 21.1636 106.732 21.1013 106.936 21.1013H114.192C116.433 21.1013 118.188 21.6311 119.457 22.6753C120.726 23.735 121.353 25.2935 121.353 27.3506C121.353 28.987 120.946 30.296 120.131 31.309C119.316 32.3064 118.156 32.9921 116.636 33.335L121.651 41.8285C121.714 41.9532 121.745 42.0622 121.745 42.1713C121.745 42.3428 121.682 42.483 121.557 42.6077C121.432 42.7324 121.291 42.7947 121.118 42.7947H120.774C120.46 42.7947 120.225 42.7324 120.068 42.5921C119.912 42.4519 119.755 42.2493 119.583 41.9532L114.63 33.6155H108.205V42.109C108.205 42.3116 108.143 42.483 108.002 42.6077C107.86 42.7324 107.688 42.7947 107.484 42.7947H106.92C106.732 42.8103 106.56 42.748 106.434 42.6233ZM114.035 31.7766C115.837 31.7766 117.185 31.4025 118.078 30.6701C118.956 29.9376 119.394 28.8311 119.394 27.3662C119.394 25.9012 118.956 24.7948 118.078 24.0623C117.2 23.3298 115.853 22.9558 114.035 22.9558H108.205V31.761H114.035V31.7766Z" fill="black"/>
<path d="M130.866 42.6233C130.74 42.4986 130.678 42.3272 130.678 42.1246V22.9714H124.503C124.3 22.9714 124.127 22.909 124.002 22.7844C123.876 22.6597 123.814 22.4883 123.814 22.2857V21.8181C123.814 21.6155 123.876 21.4441 124.002 21.3039C124.127 21.1636 124.3 21.1013 124.503 21.1013H138.78C139.015 21.1013 139.187 21.1636 139.313 21.2883C139.438 21.4129 139.501 21.5844 139.501 21.8181V22.2857C139.501 22.4883 139.438 22.6597 139.297 22.7844C139.156 22.909 138.983 22.9714 138.78 22.9714H132.637V42.1246C132.637 42.3272 132.574 42.4986 132.433 42.6233C132.292 42.748 132.119 42.8103 131.916 42.8103H131.352C131.164 42.8103 130.991 42.748 130.866 42.6233Z" fill="black"/>
<path d="M143.465 42.6233C143.34 42.4986 143.277 42.3272 143.277 42.1246V21.8181C143.277 21.6155 143.34 21.4441 143.465 21.3039C143.591 21.1636 143.763 21.1013 143.967 21.1013H156.112C156.347 21.1013 156.519 21.1636 156.645 21.2883C156.77 21.4129 156.833 21.5844 156.833 21.8181V22.2857C156.833 22.4883 156.77 22.6597 156.629 22.7844C156.488 22.909 156.316 22.9714 156.112 22.9714H145.236V30.8727H155.422C155.658 30.8727 155.83 30.935 155.955 31.0597C156.081 31.1843 156.143 31.3558 156.143 31.5895V32.0571C156.143 32.2597 156.081 32.4311 155.94 32.5558C155.799 32.6804 155.626 32.7428 155.422 32.7428H145.236V40.9557H156.363C156.598 40.9557 156.77 41.0181 156.896 41.1428C157.021 41.2674 157.084 41.4389 157.084 41.6726V42.1402C157.084 42.3428 157.021 42.5142 156.88 42.6389C156.739 42.7635 156.566 42.8259 156.363 42.8259H143.967C143.747 42.8103 143.575 42.7479 143.465 42.6233Z" fill="black"/>
<path d="M164.042 42.3272C162.851 41.7973 161.926 41.1116 161.299 40.2701C160.672 39.4285 160.328 38.509 160.281 37.5428C160.281 37.3714 160.343 37.2311 160.469 37.1064C160.594 36.9817 160.751 36.9194 160.939 36.9194H161.566C161.942 36.9194 162.161 37.122 162.255 37.5428C162.396 38.5402 162.976 39.3973 163.963 40.1454C164.966 40.8934 166.392 41.2675 168.257 41.2675C170.232 41.2675 171.705 40.909 172.661 40.1921C173.632 39.4752 174.103 38.4778 174.103 37.1999C174.103 36.4207 173.867 35.7662 173.397 35.2675C172.927 34.7688 172.253 34.3168 171.36 33.9272C170.467 33.5376 169.119 33.0701 167.301 32.4934C165.703 31.9792 164.449 31.4649 163.54 30.9818C162.631 30.4831 161.973 29.8753 161.534 29.1584C161.095 28.4415 160.876 27.522 160.876 26.3999C160.876 25.3402 161.158 24.3896 161.738 23.548C162.302 22.7065 163.133 22.0363 164.214 21.5532C165.295 21.0701 166.58 20.8207 168.085 20.8207C169.621 20.8207 170.937 21.1013 172.05 21.6467C173.147 22.1922 173.977 22.8935 174.541 23.7194C175.105 24.561 175.403 25.4025 175.45 26.2441C175.45 26.4155 175.388 26.5558 175.278 26.6805C175.168 26.8051 174.996 26.8675 174.792 26.8675H174.165C174.024 26.8675 173.867 26.8207 173.726 26.7272C173.585 26.6337 173.491 26.4779 173.476 26.2441C173.35 25.2155 172.802 24.3584 171.815 23.6883C170.827 23.0181 169.589 22.6753 168.085 22.6753C166.486 22.6753 165.217 22.987 164.261 23.6103C163.321 24.2337 162.851 25.1532 162.851 26.3999C162.851 27.2103 163.07 27.8649 163.493 28.3948C163.916 28.9246 164.559 29.3766 165.405 29.7506C166.251 30.1402 167.521 30.5921 169.182 31.122C170.89 31.6519 172.222 32.1818 173.162 32.6649C174.118 33.1636 174.839 33.7558 175.325 34.4571C175.811 35.1584 176.061 36.0623 176.061 37.1843C176.061 39.0389 175.372 40.4882 173.977 41.5324C172.582 42.5765 170.671 43.0908 168.241 43.0908C166.643 43.122 165.233 42.8571 164.042 42.3272Z" fill="black"/>
<path d="M180.763 42.6233C180.638 42.4986 180.575 42.3272 180.575 42.1246V21.787C180.575 21.5844 180.638 21.4129 180.763 21.2883C180.888 21.1636 181.061 21.1013 181.264 21.1013H181.86C182.064 21.1013 182.236 21.1636 182.361 21.2883C182.487 21.4129 182.55 21.5844 182.55 21.787V42.109C182.55 42.3116 182.487 42.483 182.361 42.6077C182.236 42.7324 182.064 42.7947 181.86 42.7947H181.264C181.045 42.8103 180.888 42.748 180.763 42.6233Z" fill="black"/>
</svg>
